<?xml version="1.0" standalone="no"?>
<!DOCTYPE svg PUBLIC "-//W3C//DTD SVG 20010904//EN"
 "http://www.w3.org/TR/2001/REC-SVG-20010904/DTD/svg10.dtd">
<svg version="1.0" xmlns="http://www.w3.org/2000/svg"
 width="1500.000000pt" height="500.000000pt" viewBox="0 0 1500.000000 500.000000"
 preserveAspectRatio="xMidYMid meet">

<g transform="translate(0.000000,500.000000) scale(0.100000,-0.100000)"
fill="#000000" stroke="none">
<path d="M12977 4713 c-34 -36 -110 -82 -187 -111 -24 -9 -24 -10 15 -22 53
-16 113 0 160 41 34 30 59 84 53 116 -2 14 -11 9 -41 -24z"/>
<path d="M6316 4590 c10 -39 32 -69 67 -91 45 -28 141 -23 191 11 48 33 53 52
8 28 -81 -41 -213 -15 -256 50 l-17 27 7 -25z"/>
<path d="M10497 4578 c20 -23 86 -24 107 -2 9 8 16 16 16 17 0 1 -31 2 -69 2
-66 0 -69 -1 -54 -17z"/>
<path d="M3055 4380 c26 -87 152 -128 246 -79 23 11 39 22 37 24 -2 2 -25 -1
-52 -7 -72 -15 -147 4 -198 50 -38 34 -40 35 -33 12z"/>
<path d="M2280 4123 c-30 -16 -60 -16 -97 -2 l-28 10 22 -22 c30 -30 86 -31
115 -1 27 26 21 33 -12 15z"/>
<path d="M9297 3804 c65 -191 339 -241 487 -88 33 34 76 101 76 120 0 3 -23
-14 -50 -39 -83 -74 -129 -92 -240 -92 -113 0 -167 21 -241 95 l-47 47 15 -43z"/>
<path d="M11389 3692 c17 -32 65 -47 101 -32 17 7 35 21 41 32 9 17 8 18 -10
9 -11 -6 -38 -11 -61 -11 -23 0 -50 5 -61 11 -18 9 -19 8 -10 -9z"/>
<path d="M5368 3644 c68 -133 240 -160 336 -54 20 22 36 42 36 45 0 2 -21 -7
-46 -20 -38 -20 -61 -25 -123 -25 -84 0 -133 17 -190 65 l-33 29 20 -40z"/>
<path d="M0 3590 c0 -36 -165 73 1560 -1023 309 -196 531 -337 680 -432 80
-51 395 -251 700 -445 305 -194 620 -394 700 -445 80 -51 246 -157 370 -235
215 -136 305 -194 680 -432 967 -616 903 -578 962 -578 44 1 50 2 33 12 -11 6
-92 57 -180 113 -352 225 -497 317 -660 418 -165 102 -420 262 -577 364 l-78
50 353 6 c193 4 429 7 522 7 l170 -1 28 -40 c46 -67 131 -94 200 -65 35 14 97
78 97 100 0 16 138 20 1141 37 628 11 668 10 693 -6 37 -25 98 -24 148 2 43
21 45 22 2266 59 1222 20 2225 35 2227 32 5 -4 -416 -189 -1180 -518 -364
-157 -882 -382 -1200 -521 l-110 -48 81 -1 81 0 354 154 c195 84 597 259 894
389 297 129 837 364 1200 522 363 158 836 364 1050 457 215 94 455 198 535
233 80 35 359 156 620 270 261 114 512 223 558 243 79 34 82 36 82 68 0 31 -2
33 -27 29 -23 -4 -610 -25 -696 -25 -17 0 -32 -13 -55 -49 -42 -65 -103 -118
-171 -149 -47 -22 -70 -27 -141 -26 -71 0 -94 4 -137 25 -29 15 -53 23 -53 18
0 -4 19 -24 42 -44 142 -121 372 -61 460 120 l22 45 80 1 c45 1 172 4 283 8
111 3 199 3 195 0 -6 -6 -805 -355 -1332 -582 l-175 -76 -1090 -16 c-1029 -16
-1092 -18 -1131 -36 -22 -10 -55 -19 -72 -19 -37 0 -97 23 -126 48 -18 16 -19
16 -13 0 6 -17 -5 -18 -151 -19 -86 0 -1770 -26 -3742 -58 -2402 -39 -3592
-54 -3605 -48 -11 6 -85 52 -165 102 -383 243 -545 347 -549 351 -2 2 35 4 82
4 l87 0 0 -55 0 -55 530 0 530 0 0 75 0 74 168 3 167 3 51 -36 c55 -40 137
-84 195 -104 l37 -13 11 41 c14 54 39 83 91 106 l41 18 -59 12 c-93 18 -258
137 -334 241 -83 113 -107 138 -142 150 -41 13 -46 27 -46 148 0 335 185 589
485 667 81 22 260 22 350 1 173 -41 325 -158 397 -306 20 -41 39 -87 42 -102
l6 -28 -119 0 -119 0 -23 47 c-93 192 -369 261 -582 146 -197 -108 -266 -445
-142 -698 34 -71 127 -157 202 -186 81 -33 260 -34 345 -2 120 44 194 120 230
235 10 33 18 64 18 69 0 5 -72 9 -165 9 l-165 0 0 95 0 95 265 0 265 0 0 -226
0 -226 -35 6 c-19 4 -57 18 -83 32 -61 31 -82 25 -164 -51 -33 -30 -68 -55
-79 -55 -11 0 -60 -16 -109 -35 -57 -22 -107 -35 -137 -35 l-47 0 44 -22 c63
-33 87 -70 89 -136 1 -21 4 -23 34 -17 59 13 137 46 187 80 l50 34 0 -55 0
-54 160 0 160 0 0 93 0 94 113 6 c216 13 209 14 283 -47 83 -69 177 -118 279
-148 104 -30 314 -32 415 -5 111 29 239 99 320 174 l73 68 164 3 163 4 0 -121
0 -121 170 0 170 0 0 124 0 123 38 7 c20 3 107 6 192 6 l155 0 85 -130 85
-130 208 0 c114 0 207 2 207 5 0 3 -41 66 -90 140 l-90 135 105 0 105 0 0
-140 0 -140 175 0 175 0 0 144 0 143 52 7 c29 3 81 6 116 6 61 0 62 0 62 -28
0 -28 0 -28 58 -24 47 3 63 0 91 -20 60 -41 76 -72 76 -145 0 -58 -3 -67 -28
-89 -70 -60 -179 -54 -281 16 l-59 41 7 -32 c15 -78 89 -139 167 -139 50 1
110 32 151 79 34 40 37 41 96 41 l62 0 0 155 0 155 48 0 c27 0 103 3 170 7
l121 6 105 -161 106 -162 165 0 165 0 2 168 3 167 126 3 127 3 26 -45 c70
-120 216 -235 360 -283 73 -24 96 -27 226 -28 127 0 154 3 219 24 41 14 99 41
130 62 l56 38 3 -55 3 -54 154 0 155 0 0 189 0 188 83 6 c45 4 99 7 120 7 l39
0 -46 -54 -46 -53 0 -142 0 -141 595 0 595 0 0 160 0 160 -359 2 -359 3 35 38
35 39 446 13 c246 8 477 15 513 15 l66 0 -5 30 -4 30 -102 -1 c-55 0 -271 -6
-479 -12 -207 -7 -377 -11 -377 -9 0 2 37 46 83 99 l82 96 3 -42 3 -41 90 0
89 0 0 89 0 90 -49 3 -49 3 48 55 48 55 853 22 c470 12 907 22 972 22 l117 1
0 30 0 30 -92 0 c-51 0 -448 -9 -881 -20 -433 -12 -815 -20 -848 -18 l-60 3
85 100 86 100 0 148 0 147 -246 0 c-160 0 -243 3 -239 10 4 7 -3 7 -20 0 -35
-13 -121 -13 -147 1 -15 8 -19 8 -14 0 5 -8 -65 -11 -248 -11 l-256 0 0 -160
0 -160 354 -2 354 -3 -84 -96 -84 -96 -346 -7 c-190 -4 -348 -5 -351 -3 -2 3
-11 31 -19 64 -45 174 -176 335 -334 411 -119 58 -200 75 -345 76 -145 0 -213
-16 -343 -80 -110 -54 -215 -151 -275 -254 -32 -55 -48 -99 -93 -247 -2 -9
-30 -13 -94 -13 l-90 0 0 285 0 285 -165 0 -165 0 0 -290 0 -290 -69 0 c-38 0
-76 -3 -85 -6 -12 -5 -63 66 -211 290 l-195 296 -165 0 -165 0 0 -299 0 -298
-37 -7 c-21 -3 -73 -6 -115 -6 l-78 0 0 305 0 305 -172 -2 -173 -3 -3 -306 -2
-307 -263 -7 c-278 -8 -308 -7 -314 11 -2 7 117 143 264 304 147 161 270 296
271 301 2 5 -95 9 -217 9 l-220 0 -187 -221 c-103 -122 -220 -260 -261 -306
l-73 -84 0 305 0 306 -170 0 -170 0 0 -324 0 -323 -82 -6 c-88 -7 -98 -3 -98
42 0 45 -32 155 -65 226 -148 320 -512 479 -883 384 -194 -49 -370 -193 -455
-370 -46 -96 -77 -207 -77 -277 0 -46 -11 -52 -97 -52 l-53 0 0 40 0 40 -329
0 -330 0 -3 -47 -3 -48 -202 -3 -203 -2 5 27 c2 16 6 49 9 74 14 127 90 235
198 284 55 26 75 29 158 29 83 0 103 -3 158 -29 75 -34 134 -96 159 -167 l18
-48 177 0 178 0 0 26 c0 42 -49 174 -88 238 -46 76 -132 162 -208 208 -111 68
-308 117 -425 106 -45 -5 -47 -4 -38 14 10 19 9 19 -21 3 -49 -25 -128 -30
-174 -11 -49 21 -55 15 -17 -16 l30 -25 -87 -43 c-71 -35 -103 -59 -172 -129
-131 -132 -196 -276 -207 -457 l-6 -92 -36 -6 c-20 -3 -53 -6 -73 -6 l-38 0 0
95 0 95 -340 0 -340 0 0 115 0 115 355 0 356 0 -3 158 -3 157 -527 3 -528 2 0
-379 0 -378 -37 -7 c-21 -3 -73 -6 -117 -6 l-78 0 -55 50 c-75 69 -157 104
-351 154 -92 24 -183 50 -202 58 -104 45 -100 159 8 205 40 17 155 19 197 3
64 -24 115 -95 115 -160 l0 -30 171 0 172 0 -6 63 c-23 237 -194 408 -450 448
-187 29 -387 -31 -502 -152 -131 -138 -160 -343 -70 -507 l35 -63 -58 37 c-31
21 -122 79 -202 129 -80 50 -203 129 -275 175 -148 94 -395 251 -695 442 -113
72 -253 161 -312 199 l-108 68 0 -29z m2272 -380 c153 -47 275 -181 294 -323
l7 -47 -105 0 -105 0 -12 41 c-16 55 -93 131 -147 147 -77 23 -128 25 -195 8
-110 -29 -174 -100 -166 -187 8 -99 80 -146 297 -198 212 -51 292 -85 358
-153 l32 -34 -29 -60 c-16 -32 -37 -97 -45 -143 -15 -80 -47 -151 -67 -151 -5
0 -20 7 -33 16 -23 14 -23 17 -10 42 8 15 14 51 14 79 0 46 -4 58 -35 92 -44
49 -102 74 -257 111 -223 53 -297 87 -367 166 -56 64 -74 130 -69 248 4 104
24 156 88 229 46 52 152 110 230 126 30 6 64 13 75 15 40 10 184 -4 247 -24z
m4224 5 c233 -59 413 -238 476 -472 24 -92 28 -287 6 -367 -12 -47 -17 -52
-77 -83 -35 -18 -111 -68 -170 -112 -58 -43 -119 -85 -136 -94 -49 -24 -130
-37 -228 -36 -121 1 -173 17 -62 18 134 2 222 34 311 115 186 166 193 532 15
715 -132 136 -358 170 -533 80 -58 -30 -140 -110 -172 -168 -123 -227 -66
-523 129 -670 25 -18 26 -20 5 -10 -112 53 -145 83 -251 233 -38 54 -117 106
-159 106 -23 0 -23 1 -18 118 4 92 11 135 34 202 79 237 275 398 534 440 72
12 221 4 296 -15z m4878 15 c100 -15 201 -53 279 -106 105 -72 168 -154 214
-280 l23 -64 -123 0 -123 0 -14 37 c-21 59 -124 155 -195 183 -86 34 -253 35
-337 1 -160 -63 -258 -234 -258 -451 0 -283 153 -473 393 -487 239 -15 411 96
455 295 l10 42 -164 0 -164 0 0 95 0 95 265 0 265 0 0 -183 0 -183 -55 6 c-70
8 -135 -9 -188 -48 -59 -44 -173 -107 -230 -126 -76 -26 -225 -22 -332 9 -48
14 -101 33 -118 42 -18 9 -85 69 -150 135 -98 98 -125 120 -162 130 -40 11
-46 16 -52 48 -14 69 -6 251 16 333 88 333 392 528 745 477z m-7558 -57 c-3
-21 -6 -66 -6 -100 l0 -63 -352 -2 -353 -3 -3 -172 -2 -173 342 -2 343 -3 3
-97 3 -98 -343 -2 -343 -3 -3 -182 -2 -183 355 0 355 0 0 -38 0 -39 -69 -24
c-66 -22 -75 -22 -153 -11 -115 16 -226 15 -331 -4 -101 -19 -160 -13 -208 19
-43 29 -65 97 -73 232 -11 152 -22 200 -57 229 l-29 25 0 365 0 366 466 0 467
0 -7 -37z m3694 -315 l0 -351 21 19 c26 23 332 379 479 557 l105 127 144 0
144 0 -44 -47 c-178 -192 -444 -486 -447 -492 -1 -4 87 -140 197 -302 109
-162 198 -295 197 -295 0 -1 -29 2 -63 7 -130 18 -257 108 -315 223 -52 104
-126 205 -154 212 -34 9 -104 -20 -162 -65 -43 -35 -75 -71 -164 -190 -18 -24
-61 -66 -95 -93 l-63 -50 0 546 0 546 110 0 110 0 0 -352z m1348 -225 c2 -516
1 -573 -14 -573 -29 0 -59 22 -131 99 l-73 76 0 488 0 488 108 -3 107 -3 3
-572z m789 275 c110 -167 255 -388 324 -493 l124 -189 3 492 2 492 105 0 105
0 0 -351 0 -350 -30 -37 c-43 -54 -58 -98 -70 -203 -6 -52 -16 -109 -21 -126
-10 -30 -14 -33 -53 -33 -31 0 -58 10 -102 36 -77 46 -104 72 -176 172 -33 45
-84 100 -112 122 -28 22 -55 44 -61 48 -5 5 -64 90 -130 190 -66 100 -123 182
-127 182 -5 0 -8 -144 -8 -320 l0 -320 -27 0 c-16 1 -53 9 -83 20 -30 11 -65
19 -77 20 l-23 0 0 475 0 475 119 0 119 0 199 -302z m3583 197 l0 -106 -390
-452 -389 -452 211 -5 211 -5 -86 -19 c-63 -13 -113 -17 -194 -15 -102 4 -114
7 -159 35 -32 19 -57 45 -72 73 -12 24 -32 51 -44 60 -21 17 -18 21 310 402
l332 384 -390 3 -390 2 0 100 0 100 525 0 525 0 0 -105z m-6839 -145 c151 -29
257 -134 293 -290 9 -35 14 -65 13 -66 -1 -1 -175 -5 -386 -9 l-384 -8 6 53
c9 71 56 169 106 219 89 89 219 126 352 101z m5024 -21 c67 -25 137 -92 161
-154 9 -25 15 -48 12 -51 -7 -6 -659 -26 -665 -20 -10 10 53 122 89 158 93 93
260 121 403 67z m1179 -261 c-4 -7 -28 -36 -53 -65 -44 -49 -47 -51 -64 -35
-12 11 -36 17 -64 17 -38 0 -49 -5 -74 -33 -35 -39 -38 -89 -9 -137 l20 -33
-47 -56 -48 -55 -95 -1 c-52 0 -119 -3 -147 -6 l-53 -7 0 47 c0 34 4 46 15 46
19 0 19 19 0 44 -20 27 -20 125 1 154 14 20 14 22 0 22 -12 0 -16 10 -16 35
l0 35 -330 0 -330 0 0 -155 0 -155 159 0 160 0 -10 -29 c-6 -17 -16 -34 -22
-40 -7 -5 -140 -13 -302 -18 -279 -8 -290 -7 -307 11 -25 27 -58 119 -70 195
-10 62 -8 175 3 186 6 5 1273 41 1542 44 116 1 147 -2 141 -11z m-2054 -117
c0 -86 21 -223 44 -289 l15 -42 -114 0 -115 0 0 45 0 45 49 0 c52 0 65 8 55
33 -4 11 -16 13 -48 10 -24 -3 -46 -1 -49 4 -3 5 17 37 44 72 62 75 61 96 -1
96 -45 0 -45 0 -48 39 -5 63 -2 66 88 66 l80 0 0 -79z m-501 -33 c0 -98 -8
-109 -23 -35 -4 17 -13 27 -24 27 -18 0 -85 93 -75 104 4 3 33 6 65 6 l58 0
-1 -102z m-889 27 c0 -49 -3 -57 -24 -65 -84 -31 -87 -167 -4 -201 25 -10 28
-17 28 -55 l0 -44 -92 0 c-51 0 -103 -3 -115 -6 -22 -6 -23 -3 -23 45 l0 51
55 0 c50 0 55 2 55 23 0 20 -5 22 -52 22 -47 0 -53 2 -56 23 -3 21 0 22 52 22
49 0 56 2 56 20 0 18 -7 20 -55 20 -48 0 -55 3 -55 19 0 17 8 20 53 23 44 3
52 6 52 23 0 18 -6 20 -52 17 l-53 -4 0 56 0 55 108 4 c59 1 110 4 115 5 4 1
7 -23 7 -53z m408 5 c29 -46 31 -50 12 -50 -19 0 -20 -7 -20 -105 l0 -105 26
0 c23 0 26 3 21 25 -2 16 2 34 12 46 16 20 17 20 49 -25 19 -27 41 -46 52 -46
11 0 32 -18 50 -45 l31 -45 -38 0 c-21 0 -89 -3 -151 -7 l-114 -6 4 69 c3 38
11 84 18 102 12 27 12 37 0 65 -7 17 -15 65 -18 105 -3 65 -2 72 15 72 11 0
31 -21 51 -50z m-988 -180 l0 -210 -127 0 -128 0 -69 105 c-37 57 -66 110 -62
117 3 7 11 20 18 29 6 9 8 24 5 34 -6 13 -14 15 -46 10 -39 -6 -40 -6 -75 47
-20 29 -36 56 -36 60 0 7 52 9 408 16 l112 2 0 -210z m-1342 107 l3 -68 -30
16 c-51 26 -96 16 -136 -30 l-20 -24 9 84 10 84 45 4 c25 2 62 3 81 3 l35 -1
3 -68z m5213 63 c22 -12 25 -35 6 -47 -8 -4 -24 -23 -37 -40 -31 -42 -52 -28
-48 31 2 32 9 43 28 53 30 15 27 15 51 3z m-5745 -62 c-9 -65 -11 -68 -47 -68
l-29 0 0 -73 c0 -73 0 -73 -42 -114 -95 -93 -248 -126 -385 -85 -124 38 -205
120 -243 243 -17 56 -26 125 -17 131 4 2 427 14 601 16 l169 2 -7 -52z m-1123
-45 c4 -56 2 -71 -14 -92 -48 -60 2 -171 76 -171 13 0 71 -78 63 -85 -2 -1
-65 -5 -140 -9 l-138 -7 0 83 0 82 28 -34 c20 -23 34 -31 45 -27 14 5 17 22
17 99 0 99 -8 125 -34 115 -12 -5 -16 -21 -16 -68 l0 -62 -20 26 c-17 21 -20
40 -20 121 l0 96 74 0 73 0 6 -67z m4040 33 c15 -22 15 -25 -3 -41 -20 -18
-20 -17 -20 23 0 23 2 42 4 42 2 0 11 -11 19 -24z m-4853 -61 c0 -68 2 -75 20
-75 21 0 27 -15 10 -25 -5 -3 -10 -24 -10 -47 0 -53 51 -107 102 -109 l33 -1
-45 -15 c-73 -25 -222 -22 -293 6 -32 13 -61 29 -64 37 -3 8 -11 14 -18 14 -6
0 -20 9 -30 20 -18 20 -17 20 13 20 25 0 32 4 32 20 0 17 -7 20 -45 20 -34 0
-47 5 -55 19 -9 18 -6 20 42 23 45 3 53 6 53 23 0 18 -6 20 -62 17 l-61 -4
-12 57 c-10 47 -10 59 2 66 7 5 97 9 201 9 l187 0 0 -75z m5640 66 c0 -5 -7
-14 -15 -21 -13 -10 -15 -9 -15 9 0 12 6 21 15 21 8 0 15 -4 15 -9z m-6384
-138 c-1 -1 -39 -5 -84 -9 -46 -4 -85 -10 -87 -14 -3 -4 -1 -44 3 -89 l8 -81
-83 0 c-46 0 -83 4 -83 8 0 5 -26 7 -57 4 l-57 -5 50 62 c67 85 68 86 60 106
-5 14 -13 16 -37 11 -18 -3 -53 -6 -80 -6 -42 0 -49 -3 -49 -20 0 -17 7 -20
50 -20 28 0 50 -3 50 -6 0 -13 -106 -134 -117 -134 -9 0 -13 16 -13 45 l0 45
-45 0 c-38 0 -45 -3 -45 -20 0 -13 7 -20 20 -20 25 0 26 -16 1 -30 -52 -27
-94 5 -89 66 2 31 9 42 32 52 25 13 31 12 57 -7 55 -40 82 -16 33 30 -19 18
-37 24 -71 24 -38 0 -49 -5 -74 -33 -33 -37 -39 -93 -13 -130 15 -21 14 -22
-15 -22 l-31 0 0 78 c0 83 -9 108 -34 99 -12 -5 -16 -21 -16 -69 0 -56 -1 -60
-15 -42 -10 13 -14 45 -15 102 l0 82 340 0 340 0 0 35 0 34 73 3 72 3 11 -65
c7 -36 11 -66 10 -67z m-1196 37 c0 -63 -2 -70 -20 -70 -19 0 -20 -7 -20 -105
0 -98 1 -105 20 -105 17 0 20 -7 20 -44 0 -31 -5 -46 -16 -50 -20 -8 -234 -8
-234 0 0 3 8 18 18 32 10 15 22 35 25 45 4 9 17 17 29 17 46 0 98 59 98 110 0
34 -27 76 -63 98 -25 14 -36 29 -40 53 -3 19 -9 44 -13 56 -6 22 -4 22 87 26
52 1 97 4 102 5 4 1 7 -29 7 -68z m6330 3 c0 -65 0 -66 -20 -48 -32 29 -23
115 12 115 4 0 8 -30 8 -67z m-7084 3 c142 -37 207 -65 224 -95 14 -26 1 -111
-16 -111 -8 0 -14 7 -14 15 0 9 -9 15 -22 15 -13 0 -36 9 -53 20 l-30 20 48 0
c34 0 49 4 54 16 10 26 -9 32 -83 25 l-71 -6 -108 67 c-127 80 -119 83 71 34z
m5109 12 c30 -13 42 -50 29 -87 -22 -62 -114 -44 -114 22 0 35 15 61 40 70 8
3 16 6 17 6 1 1 14 -4 28 -11z m545 -50 c0 -18 -2 -20 -9 -8 -6 8 -7 18 -5 22
9 14 14 9 14 -14z m153 -195 c-21 -2 -98 -4 -171 -5 l-132 -3 0 28 c0 39 17
67 40 67 12 0 20 7 20 17 0 9 10 27 21 39 l22 23 29 -40 c42 -58 62 -50 66 25
l3 59 70 -104 69 -104 -37 -2z m-794 105 c36 -32 93 -38 129 -12 l23 16 -3
-64 -3 -63 -137 -3 c-76 -1 -138 0 -138 3 0 9 31 68 45 85 6 8 18 42 25 75 14
59 14 59 21 25 4 -20 21 -47 38 -62z m-2133 35 c16 -64 -39 -113 -90 -79 -42
27 -32 104 14 118 28 9 70 -13 76 -39z m94 7 c0 -32 -7 -48 -36 -78 l-35 -37
16 34 c16 32 16 66 0 104 -6 14 -2 17 24 17 30 0 31 -2 31 -40z m590 -79 c0
-2 -9 4 -20 14 -13 12 -20 30 -20 54 l1 36 19 -50 c11 -27 20 -52 20 -54z
m-1496 -134 c14 -19 26 -37 26 -40 0 -4 -63 -7 -140 -7 l-140 0 0 55 0 54 73
3 72 3 3 65 3 65 39 -82 c21 -45 50 -98 64 -116z m-1448 147 c9 -35 -3 -72
-28 -85 -20 -11 -21 -10 -15 27 4 22 7 51 7 66 0 34 27 28 36 -8z m8814 -54
c-46 -35 -129 -55 -230 -55 -86 0 -101 3 -155 30 l-60 30 165 5 c91 3 197 7
235 8 l70 2 -25 -20z m1583 -97 c-13 -2 -33 -2 -45 0 -13 2 -3 4 22 4 25 0 35
-2 23 -4z m-6866 -9 c-3 -3 -12 -4 -19 -1 -8 3 -5 6 6 6 11 1 17 -2 13 -5z
m6921 -509 c-19 -19 -196 -85 -228 -85 -35 0 -70 -19 -70 -39 0 -5 -31 -22
-69 -39 l-70 -30 -3 41 -3 42 -80 0 -80 0 -5 -80 -5 -80 -160 -69 -160 -69
-2305 -40 c-2195 -38 -2306 -41 -2329 -58 -55 -44 -138 -46 -202 -6 -22 13
-49 20 -74 19 -22 -1 -335 -6 -695 -12 -360 -6 -737 -13 -837 -16 -175 -6
-183 -7 -189 -28 -9 -31 -54 -76 -91 -92 -54 -23 -113 -17 -184 19 -53 27 -65
37 -72 65 -8 32 -10 33 -45 28 -20 -3 -274 -8 -563 -12 l-527 -6 -113 73 c-63
40 -116 76 -117 81 -2 4 -8 8 -14 8 -5 0 -23 9 -39 21 l-29 21 35 41 c19 22
35 49 35 59 0 16 -9 18 -80 18 -73 0 -80 -2 -80 -19 0 -17 8 -20 50 -23 l50
-3 -23 -28 -23 -29 -74 50 c-41 27 -99 64 -128 82 -29 18 -50 36 -45 40 4 3
1675 33 3713 64 2758 43 3715 55 3746 47 29 -8 49 -8 75 1 23 7 342 17 989 28
525 9 993 18 1039 18 46 1 82 0 79 -3z"/>
<path d="M12235 2578 c-2 -7 -6 -37 -7 -66 l-3 -52 -40 59 c-29 44 -46 61 -62
61 -22 0 -23 -3 -23 -105 0 -98 1 -105 20 -105 17 0 19 8 22 66 l3 66 48 -67
c66 -92 81 -87 85 25 2 47 0 95 -3 108 -6 24 -33 30 -40 10z"/>
<path d="M12010 2475 l0 -105 26 0 c24 0 26 3 20 31 -3 17 -6 65 -6 105 0 67
-2 74 -20 74 -19 0 -20 -7 -20 -105z"/>
<path d="M10979 2545 c-57 -32 -40 -93 33 -116 26 -8 43 -20 43 -29 0 -21 -49
-25 -65 -6 -16 20 -50 21 -50 1 0 -28 38 -55 78 -55 53 0 82 23 82 65 0 36
-21 54 -82 69 -33 8 -37 32 -6 42 14 4 25 1 33 -10 13 -17 55 -22 55 -7 0 20
-37 51 -65 56 -17 3 -41 -1 -56 -10z"/>
<path d="M11198 2553 l-58 -4 0 -104 0 -105 75 0 c71 0 75 1 75 23 0 20 -5 22
-52 22 -47 0 -53 2 -56 23 -3 21 0 22 52 22 49 0 56 2 56 20 0 18 -7 20 -55
20 -48 0 -55 3 -55 19 0 17 8 20 53 23 44 3 52 6 52 23 0 22 -5 23 -87 18z"/>
<path d="M8442 2462 l-83 -3 3 -87 3 -87 90 0 90 0 -3 85 c-2 47 -7 87 -10 90
-4 3 -44 4 -90 2z"/>
<path d="M6459 2415 c-57 -32 -40 -93 33 -116 26 -8 43 -20 43 -29 0 -21 -49
-25 -65 -6 -16 20 -50 21 -50 1 0 -28 38 -55 78 -55 53 0 82 23 82 65 0 36
-21 54 -82 69 -33 8 -37 32 -6 42 14 4 25 1 33 -10 13 -17 55 -22 55 -7 0 20
-37 51 -65 56 -17 3 -41 -1 -56 -10z"/>
<path d="M6107 2393 c-13 -12 -7 -149 6 -167 12 -16 23 -18 95 -11 l82 7 0 52
c0 28 -3 68 -6 89 l-7 37 -82 0 c-45 0 -85 -3 -88 -7z"/>
<path d="M4604 2361 c-58 -25 -81 -104 -47 -161 26 -45 89 -64 133 -40 12 6
21 7 25 0 3 -5 12 -7 20 -3 11 3 15 21 15 59 l0 54 -45 0 c-38 0 -45 -3 -45
-20 0 -13 7 -20 20 -20 25 0 26 -16 1 -30 -52 -27 -94 5 -89 66 2 31 9 42 32
52 25 13 31 12 57 -7 53 -39 82 -17 35 28 -26 25 -80 35 -112 22z"/>
<path d="M12029 1441 c-33 -34 -38 -75 -14 -121 24 -47 79 -64 126 -40 13 7
19 7 19 0 0 -5 9 -10 20 -10 18 0 20 7 20 55 l0 55 -45 0 c-39 0 -45 -3 -45
-21 0 -17 5 -20 21 -16 15 4 19 1 17 -11 -2 -13 -14 -17 -43 -17 -33 0 -42 4
-53 28 -11 22 -11 32 0 55 16 32 67 43 88 18 16 -20 50 -21 50 -2 0 26 -50 56
-92 56 -30 0 -46 -7 -69 -29z"/>
<path d="M12220 1451 c0 -17 8 -20 50 -23 l50 -3 -50 -60 c-72 -87 -69 -96 33
-93 65 2 82 6 82 18 0 11 -15 16 -52 20 l-52 5 50 60 c71 86 68 95 -31 95 -73
0 -80 -2 -80 -19z"/>
<path d="M11353 1448 c-37 -10 -73 -55 -73 -93 0 -110 149 -146 196 -47 38 82
-33 164 -123 140z m77 -57 c26 -50 1 -101 -49 -101 -35 0 -54 22 -54 60 0 40
19 60 59 60 23 0 37 -6 44 -19z"/>
<path d="M11520 1360 c0 -93 1 -100 20 -100 15 0 20 7 20 28 0 26 15 52 31 52
3 0 18 -18 33 -40 19 -29 33 -40 52 -40 l25 0 -41 60 -40 59 36 41 36 40 -28
0 c-23 -1 -37 -11 -64 -47 l-35 -47 -3 47 c-3 39 -6 47 -23 47 -18 0 -19 -8
-19 -100z"/>
<path d="M11720 1360 c0 -93 1 -100 20 -100 19 0 20 7 20 100 0 93 -1 100 -20
100 -19 0 -20 -7 -20 -100z"/>
<path d="M11800 1360 c0 -93 1 -100 20 -100 16 0 19 8 22 61 l3 61 40 -58 c26
-37 48 -60 63 -62 22 -3 22 -1 22 97 0 94 -1 101 -20 101 -16 0 -19 -8 -22
-62 l-3 -63 -43 63 c-28 40 -50 62 -62 62 -19 0 -20 -7 -20 -100z"/>
<path d="M10726 1434 c-19 -19 -21 -67 -3 -82 6 -6 28 -14 47 -19 46 -12 54
-43 11 -43 -16 0 -33 5 -36 10 -3 6 -15 10 -26 10 -24 0 -24 -15 1 -40 26 -26
90 -27 113 -2 38 42 13 90 -55 106 -16 4 -28 13 -28 20 0 21 31 28 50 11 21
-19 50 -20 50 -2 0 41 -92 64 -124 31z"/>
<path d="M10890 1350 l0 -100 70 0 c63 0 70 2 70 20 0 17 -7 20 -50 20 -43 0
-50 3 -50 20 0 17 7 20 50 20 43 0 50 3 50 20 0 17 -7 20 -50 20 -43 0 -50 3
-50 20 0 17 7 20 50 20 43 0 50 3 50 20 0 18 -7 20 -70 20 l-70 0 0 -100z"/>
<path d="M11089 1421 c-33 -34 -38 -75 -14 -121 24 -47 79 -64 126 -40 13 7
19 7 19 0 0 -5 9 -10 20 -10 18 0 20 7 20 55 l0 55 -45 0 c-39 0 -45 -3 -45
-21 0 -17 5 -20 21 -16 15 4 19 1 17 -11 -2 -13 -14 -17 -43 -17 -33 0 -42 4
-53 28 -11 22 -11 32 0 55 16 32 67 43 88 18 16 -20 50 -21 50 -2 0 26 -50 56
-92 56 -30 0 -46 -7 -69 -29z"/>
<path d="M10090 1421 c0 -17 8 -20 50 -23 l50 -3 -50 -60 c-72 -87 -69 -96 33
-93 65 2 82 6 82 18 0 11 -15 16 -52 20 l-52 5 50 60 c71 86 68 95 -31 95 -73
0 -80 -2 -80 -19z"/>
<path d="M9223 1418 c-37 -10 -73 -55 -73 -93 0 -110 149 -146 196 -47 38 82
-33 164 -123 140z m77 -57 c26 -50 1 -101 -49 -101 -35 0 -54 22 -54 60 0 40
19 60 59 60 23 0 37 -6 44 -19z"/>
<path d="M9390 1330 c0 -93 1 -100 20 -100 15 0 20 7 20 28 0 26 15 52 31 52
3 0 18 -18 33 -40 19 -29 33 -40 52 -40 l25 0 -41 60 -40 59 36 41 36 40 -28
0 c-23 -1 -37 -11 -64 -47 l-35 -47 -3 47 c-3 39 -6 47 -23 47 -18 0 -19 -8
-19 -100z"/>
<path d="M9580 1330 c0 -93 1 -100 20 -100 19 0 20 7 20 100 0 93 -1 100 -20
100 -19 0 -20 -7 -20 -100z"/>
<path d="M9670 1330 c0 -93 1 -100 20 -100 16 0 19 8 22 61 l3 61 40 -58 c26
-37 48 -60 63 -62 22 -3 22 -1 22 97 0 94 -1 101 -20 101 -16 0 -19 -8 -22
-62 l-3 -63 -43 63 c-28 40 -50 62 -62 62 -19 0 -20 -7 -20 -100z"/>
<path d="M9899 1401 c-33 -34 -38 -75 -14 -121 24 -47 79 -64 126 -40 13 7 19
7 19 0 0 -5 9 -10 20 -10 18 0 20 7 20 55 l0 55 -45 0 c-39 0 -45 -3 -45 -21
0 -17 5 -20 21 -16 15 4 19 1 17 -11 -2 -13 -14 -17 -43 -17 -33 0 -42 4 -53
28 -11 22 -11 32 0 55 16 32 67 43 88 18 16 -20 50 -21 50 -2 0 26 -50 56 -92
56 -30 0 -46 -7 -69 -29z"/>
<path d="M10423 1423 c-22 -4 -23 -9 -23 -84 l0 -79 85 0 85 0 0 73 c0 43 -5
78 -12 85 -11 11 -87 14 -135 5z"/>
<path d="M8750 1320 l0 -100 70 0 c63 0 70 2 70 20 0 17 -7 20 -50 20 -43 0
-50 3 -50 20 0 17 7 20 50 20 43 0 50 3 50 20 0 17 -7 20 -50 20 -43 0 -50 3
-50 20 0 17 7 20 50 20 43 0 50 3 50 20 0 18 -7 20 -70 20 l-70 0 0 -100z"/>
<path d="M8949 1391 c-33 -34 -38 -75 -14 -121 24 -47 79 -64 126 -40 13 7 19
7 19 0 0 -5 9 -10 20 -10 18 0 20 7 20 55 l0 55 -45 0 c-39 0 -45 -3 -45 -21
0 -17 5 -20 21 -16 15 4 19 1 17 -11 -2 -13 -14 -17 -43 -17 -33 0 -42 4 -53
28 -11 22 -11 32 0 55 16 32 67 43 88 18 16 -20 50 -21 50 -2 0 26 -50 56 -92
56 -30 0 -46 -7 -69 -29z"/>
<path d="M8596 1394 c-19 -19 -21 -67 -3 -82 6 -6 28 -14 47 -19 46 -12 54
-43 11 -43 -16 0 -33 5 -36 10 -3 6 -15 10 -26 10 -24 0 -24 -15 1 -40 26 -26
90 -27 113 -2 38 42 13 90 -55 106 -16 4 -28 13 -28 20 0 21 31 28 50 11 21
-19 50 -20 50 -2 0 41 -92 64 -124 31z"/>
<path d="M7093 1388 c-37 -10 -73 -55 -73 -93 0 -110 149 -146 196 -47 38 82
-33 164 -123 140z m77 -57 c26 -50 1 -101 -49 -101 -35 0 -54 22 -54 60 0 40
19 60 59 60 23 0 37 -6 44 -19z"/>
<path d="M7450 1305 c0 -88 1 -95 20 -95 19 0 20 7 20 95 0 88 -1 95 -20 95
-19 0 -20 -7 -20 -95z"/>
<path d="M7530 1300 c0 -93 1 -100 20 -100 16 0 19 8 22 61 l3 61 40 -58 c26
-37 48 -60 63 -62 22 -3 22 -1 22 97 0 94 -1 101 -20 101 -16 0 -19 -8 -22
-62 l-3 -63 -43 63 c-28 40 -50 62 -62 62 -19 0 -20 -7 -20 -100z"/>
<path d="M7759 1371 c-33 -34 -38 -75 -14 -121 24 -47 79 -64 126 -40 13 7 19
7 19 0 0 -5 9 -10 20 -10 18 0 20 7 20 55 l0 55 -45 0 c-39 0 -45 -3 -45 -21
0 -17 5 -20 21 -16 15 4 19 1 17 -11 -2 -13 -14 -17 -43 -17 -33 0 -42 4 -53
28 -11 22 -11 32 0 55 16 32 67 43 88 18 16 -20 50 -21 50 -2 0 26 -50 56 -92
56 -30 0 -46 -7 -69 -29z"/>
<path d="M7960 1381 c0 -17 8 -20 50 -23 l50 -3 -50 -60 c-72 -87 -69 -96 33
-93 65 2 82 6 82 18 0 11 -15 16 -52 20 l-52 5 50 60 c71 86 68 95 -31 95 -73
0 -80 -2 -80 -19z"/>
<path d="M6819 1361 c-33 -34 -38 -75 -14 -121 24 -47 79 -64 126 -40 13 7 19
7 19 0 0 -5 9 -10 20 -10 18 0 20 7 20 55 l0 55 -45 0 c-39 0 -45 -3 -45 -21
0 -17 5 -20 21 -16 15 4 19 1 17 -11 -2 -13 -14 -17 -43 -17 -33 0 -42 4 -53
28 -11 22 -11 32 0 55 16 32 67 43 88 18 16 -20 50 -21 50 -2 0 26 -50 56 -92
56 -30 0 -46 -7 -69 -29z"/>
<path d="M7260 1290 c0 -93 1 -100 20 -100 15 0 20 7 20 28 0 26 15 52 31 52
4 0 17 -16 29 -35 13 -20 30 -35 41 -35 26 0 24 14 -11 65 l-31 44 37 41 36
40 -28 0 c-23 -1 -37 -11 -64 -47 l-35 -47 -3 47 c-3 39 -6 47 -23 47 -18 0
-19 -8 -19 -100z"/>
<path d="M8266 1382 c-3 -4 -2 -43 1 -85 7 -87 1 -84 111 -71 l52 7 0 78 0 79
-79 0 c-44 0 -82 -4 -85 -8z"/>
<path d="M6456 1364 c-19 -19 -21 -67 -3 -82 6 -6 28 -14 47 -19 46 -12 54
-43 11 -43 -16 0 -33 5 -36 10 -3 6 -15 10 -26 10 -24 0 -24 -15 1 -40 26 -26
90 -27 113 -2 38 42 13 90 -55 106 -16 4 -28 13 -28 20 0 21 31 28 50 11 21
-19 50 -20 50 -2 0 41 -92 64 -124 31z"/>
<path d="M6620 1280 l0 -100 70 0 c63 0 70 2 70 20 0 17 -7 20 -50 20 -43 0
-50 3 -50 20 0 17 7 20 50 20 43 0 50 3 50 20 0 17 -7 20 -50 20 -43 0 -50 3
-50 20 0 17 7 20 50 20 43 0 50 3 50 20 0 18 -7 20 -70 20 l-70 0 0 -100z"/>
<path d="M4953 1358 c-37 -10 -73 -55 -73 -93 0 -110 149 -146 196 -47 38 82
-33 164 -123 140z m77 -57 c26 -50 1 -101 -49 -101 -35 0 -54 22 -54 60 0 40
19 60 59 60 23 0 37 -6 44 -19z"/>
<path d="M5629 1341 c-33 -34 -38 -75 -14 -121 24 -47 79 -64 126 -40 13 7 19
7 19 0 0 -5 9 -10 20 -10 18 0 20 7 20 55 l0 55 -45 0 c-39 0 -45 -3 -45 -21
0 -17 5 -20 21 -16 15 4 19 1 17 -11 -2 -13 -14 -17 -43 -17 -33 0 -42 4 -53
28 -11 22 -11 32 0 55 16 32 67 43 88 18 16 -20 50 -21 50 -2 0 26 -50 56 -92
56 -30 0 -46 -7 -69 -29z"/>
<path d="M5820 1351 c0 -17 8 -20 50 -23 l50 -3 -50 -60 c-72 -87 -69 -96 33
-93 65 2 82 6 82 18 0 11 -15 16 -52 20 l-52 5 50 60 c71 86 68 95 -31 95 -73
0 -80 -2 -80 -19z"/>
<path d="M5120 1260 c0 -93 1 -100 20 -100 15 0 20 7 20 28 0 26 15 52 31 52
3 0 18 -18 33 -40 14 -22 31 -40 36 -40 24 0 20 32 -9 74 l-32 45 37 41 36 40
-28 0 c-23 -1 -37 -11 -64 -47 l-35 -47 -3 47 c-3 39 -6 47 -23 47 -18 0 -19
-8 -19 -100z"/>
<path d="M5320 1284 c0 -66 2 -75 18 -72 14 3 18 16 20 76 3 67 1 72 -18 72
-18 0 -20 -6 -20 -76z"/>
<path d="M5400 1290 c0 -63 2 -70 19 -70 15 0 21 8 23 31 l3 31 40 -58 c26
-38 48 -60 63 -62 22 -3 22 -1 22 97 0 94 -1 101 -20 101 -16 0 -19 -8 -22
-62 l-3 -63 -43 63 c-28 40 -50 62 -62 62 -18 0 -20 -7 -20 -70z"/>
<path d="M6137 1354 c-4 -4 -7 -43 -7 -86 l0 -78 85 0 86 0 -3 83 -3 82 -75 3
c-42 1 -79 0 -83 -4z"/>
<path d="M4326 1334 c-19 -19 -21 -67 -3 -82 6 -6 28 -14 47 -19 46 -12 54
-43 11 -43 -16 0 -33 5 -36 10 -3 6 -15 10 -26 10 -24 0 -24 -15 1 -40 26 -26
90 -27 113 -2 38 42 13 90 -55 106 -16 4 -28 13 -28 20 0 21 31 28 50 11 21
-19 50 -20 50 -2 0 41 -92 64 -124 31z"/>
<path d="M4490 1250 l0 -100 70 0 c63 0 70 2 70 20 0 17 -7 20 -50 20 -43 0
-50 3 -50 20 0 17 7 20 50 20 43 0 50 3 50 20 0 17 -7 20 -50 20 -43 0 -50 3
-50 20 0 17 7 20 50 20 43 0 50 3 50 20 0 18 -7 20 -70 20 l-70 0 0 -100z"/>
<path d="M4689 1321 c-33 -34 -38 -75 -14 -121 24 -47 79 -64 126 -40 13 7 19
7 19 0 0 -5 9 -10 20 -10 18 0 20 7 20 55 l0 55 -45 0 c-39 0 -45 -3 -45 -21
0 -17 5 -20 21 -16 15 4 19 1 17 -11 -2 -13 -14 -17 -43 -17 -33 0 -42 4 -53
28 -11 22 -11 32 0 55 16 32 67 43 88 18 16 -20 50 -21 50 -2 0 26 -50 56 -92
56 -30 0 -46 -7 -69 -29z"/>
<path d="M4007 1324 c-4 -4 -7 -43 -7 -86 l0 -78 85 0 86 0 -3 83 -3 82 -75 3
c-42 1 -79 0 -83 -4z"/>
<path d="M6975 3480 c16 -59 95 -90 141 -55 18 14 17 14 -13 15 -41 0 -82 16
-112 43 l-23 22 7 -25z"/>
<path d="M0 3406 c0 -80 12 -93 28 -32 11 40 5 81 -14 97 -12 10 -14 -1 -14
-65z"/>
<path d="M56 3331 c-60 -95 -62 -101 -44 -119 9 -9 18 -5 39 18 43 46 57 40
61 -26 2 -46 7 -60 26 -72 l22 -14 0 79 0 80 62 17 c60 17 61 17 38 33 -20 14
-29 15 -69 3 -25 -7 -57 -15 -70 -18 l-24 -5 27 39 c31 46 32 50 7 63 -16 9
-26 0 -75 -78z"/>
<path d="M889 3404 c-20 -24 -88 -54 -125 -54 -17 0 -52 11 -78 24 -46 23 -47
23 -33 2 58 -88 196 -86 242 4 19 36 15 49 -6 24z"/>
<path d="M13836 3352 c-13 -22 -70 -46 -121 -52 l-50 -5 39 -18 c34 -17 42
-17 73 -5 39 14 78 58 71 79 -3 10 -6 10 -12 1z"/>
<path d="M241 3203 c-34 -52 -60 -96 -59 -97 2 -1 11 -7 20 -15 15 -11 23 -3
74 75 69 109 70 110 46 123 -17 9 -26 0 -81 -86z"/>
<path d="M321 3153 c-57 -88 -61 -97 -44 -107 10 -5 20 -9 22 -9 2 1 21 28 42
60 l39 58 0 -87 c0 -78 2 -88 22 -102 21 -15 23 -13 78 72 31 48 59 92 62 97
4 6 -2 16 -13 23 -17 11 -23 6 -56 -45 l-38 -57 -5 84 c-4 69 -8 85 -26 96
-20 14 -24 9 -83 -83z"/>
<path d="M0 3103 c0 -22 8 -33 33 -48 31 -18 376 -238 743 -474 l181 -116
-106 -6 c-58 -4 -274 -10 -478 -14 l-373 -8 0 -32 0 -32 73 3 c39 2 277 9 528
15 l456 11 102 -66 c73 -47 101 -71 101 -86 0 -16 7 -20 33 -20 63 0 65 -13
14 -75 -26 -32 -47 -66 -47 -76 0 -17 8 -19 84 -19 85 0 101 6 91 32 -5 11
-20 13 -62 10 l-57 -5 33 42 c18 22 37 41 42 41 4 0 43 -21 85 -47 57 -36 86
-61 114 -104 l39 -56 -167 -6 c-92 -4 -430 -14 -752 -22 -322 -9 -613 -18
-647 -21 -62 -5 -63 -6 -63 -35 l0 -30 108 6 c59 3 441 15 849 26 l742 21 29
-21 c45 -31 114 -58 191 -74 38 -8 75 -18 83 -22 22 -13 318 -201 422 -268
l99 -65 -359 -6 c-197 -3 -450 -8 -561 -11 l-203 -5 -1 27 c-1 55 -15 67 -16
15 -2 -138 -126 -250 -287 -260 -55 -3 -74 -8 -62 -14 11 -6 16 -23 16 -58 0
-43 3 -50 20 -50 17 0 20 7 20 40 0 33 3 40 20 40 17 0 20 -7 20 -40 0 -33 3
-40 20 -40 17 0 20 7 20 40 0 53 25 53 62 0 17 -25 36 -40 48 -40 19 0 21 5
18 62 -3 60 -1 64 28 90 17 16 41 50 53 77 l21 49 212 6 c117 3 393 8 613 11
l400 6 78 -51 c77 -51 78 -52 63 -75 -41 -63 7 -154 81 -155 43 0 78 17 93 45
11 20 16 22 31 12 11 -7 19 -20 19 -29 0 -13 8 -18 28 -18 16 0 66 -26 127
-65 l100 -65 -70 0 c-38 0 -695 -11 -1460 -25 -765 -14 -1463 -25 -1552 -25
l-163 0 0 -33 0 -33 113 3 c61 2 812 15 1668 29 l1556 26 79 -49 c116 -73 493
-316 779 -502 609 -396 603 -392 655 -389 l47 3 -195 125 c-107 69 -254 163
-326 209 -72 46 -203 130 -291 186 -171 109 -687 439 -1000 640 -104 67 -298
191 -430 275 -132 84 -325 208 -430 275 -104 67 -273 175 -375 240 -102 65
-264 168 -360 230 -199 128 -456 292 -805 515 -132 84 -334 213 -449 287 -114
74 -214 137 -222 140 -10 4 -14 -3 -14 -24z m2866 -1860 c48 -30 53 -43 28
-68 -25 -25 -76 -16 -92 17 -12 25 -3 78 14 78 4 0 26 -12 50 -27z m-1606 -53
c0 -5 -2 -10 -4 -10 -3 0 -8 5 -11 10 -3 6 -1 10 4 10 6 0 11 -4 11 -10z"/>
<path d="M562 3073 c-36 -17 -72 -76 -72 -117 0 -32 54 -94 88 -103 15 -3 34
-16 44 -27 20 -23 15 -27 62 50 l26 42 -40 26 c-47 31 -46 31 -54 9 -5 -11 1
-23 16 -34 l23 -17 -28 -7 c-34 -9 -74 16 -83 51 -7 27 15 67 48 88 28 17 71
-5 84 -43 18 -56 54 -64 54 -12 0 34 -31 76 -70 96 -37 19 -57 19 -98 -2z"/>
<path d="M787 2973 c-16 -15 -4 -33 38 -57 25 -15 45 -29 45 -31 0 -3 -40 -17
-88 -31 -52 -16 -93 -34 -100 -45 -10 -15 -1 -24 68 -68 65 -41 81 -47 90 -36
16 19 7 30 -46 61 -24 14 -44 27 -44 29 0 1 37 13 83 25 76 22 117 43 117 61
0 7 -138 99 -150 99 -4 0 -10 -3 -13 -7z"/>
<path d="M1036 2687 c-25 -41 -46 -77 -46 -80 0 -11 134 -97 150 -97 11 0 88
106 108 150 3 8 -141 100 -156 100 -6 0 -31 -33 -56 -73z"/>
<path d="M14873 2663 c-55 -3 -63 -7 -63 -23 0 -17 7 -20 50 -20 28 0 50 -3
50 -6 0 -3 -22 -33 -50 -66 -27 -33 -50 -68 -50 -79 0 -17 8 -19 84 -19 85 0
101 6 91 32 -5 11 -20 13 -62 10 l-57 -5 50 62 c27 34 53 68 58 75 13 19 0 46
-21 44 -10 -1 -46 -3 -80 -5z"/>
<path d="M14634 2651 c-58 -25 -81 -104 -47 -161 26 -45 89 -64 133 -40 12 6
21 7 25 0 3 -5 12 -7 20 -3 11 3 15 21 15 59 l0 54 -45 0 c-38 0 -45 -3 -45
-20 0 -13 7 -20 20 -20 25 0 26 -16 1 -30 -52 -27 -94 5 -89 66 2 31 9 42 32
52 25 13 31 12 57 -7 53 -39 82 -17 35 28 -26 25 -80 35 -112 22z"/>
<path d="M14495 2638 c-2 -7 -6 -37 -7 -66 l-3 -52 -40 59 c-29 44 -46 61 -62
61 -22 0 -23 -3 -23 -105 0 -98 1 -105 20 -105 17 0 19 8 22 66 l3 66 48 -67
c66 -92 81 -87 85 25 2 47 0 95 -3 108 -6 24 -33 30 -40 10z"/>
<path d="M13863 2620 c-41 -25 -44 -46 -4 -26 16 9 48 18 71 22 28 5 37 10 28
15 -22 14 -61 10 -95 -11z"/>
<path d="M14176 2609 c-21 -25 -24 -34 -15 -45 10 -12 15 -12 32 3 10 10 28
30 39 46 l19 27 -24 0 c-16 0 -35 -12 -51 -31z"/>
<path d="M14270 2535 l0 -105 26 0 c24 0 26 3 20 31 -3 17 -6 65 -6 105 0 67
-2 74 -20 74 -19 0 -20 -7 -20 -105z"/>
<path d="M13458 2623 l-58 -4 0 -104 0 -105 75 0 c71 0 75 1 75 23 0 20 -5 22
-52 22 -47 0 -53 2 -56 23 -3 21 0 22 52 22 49 0 56 2 56 20 0 18 -7 20 -55
20 -48 0 -55 3 -55 19 0 17 8 20 53 23 44 3 52 6 52 23 0 22 -5 23 -87 18z"/>
<path d="M13634 2621 c-58 -25 -81 -104 -47 -162 28 -48 104 -66 111 -26 3 12
-3 17 -21 17 -36 0 -59 31 -55 76 2 31 9 42 32 52 25 13 31 12 57 -7 53 -39
82 -17 35 28 -26 25 -80 35 -112 22z"/>
<path d="M14070 2621 c0 -5 7 -12 16 -15 22 -9 24 -8 24 9 0 8 -9 15 -20 15
-11 0 -20 -4 -20 -9z"/>
<path d="M13239 2605 c-57 -32 -40 -93 33 -116 26 -8 43 -20 43 -29 0 -21 -49
-25 -65 -6 -16 20 -50 21 -50 1 0 -28 38 -55 78 -55 53 0 82 23 82 65 0 36
-21 54 -82 69 -33 8 -37 32 -6 42 14 4 25 1 33 -10 13 -17 55 -22 55 -7 0 20
-37 51 -65 56 -17 3 -41 -1 -56 -10z"/>
<path d="M1377 2559 c-45 -26 -41 -76 10 -131 27 -28 24 -48 -6 -48 -20 0 -41
21 -45 42 -6 45 -46 53 -46 9 0 -45 9 -60 51 -81 50 -26 65 -25 94 5 33 32 31
57 -5 98 -34 39 -39 67 -12 67 23 0 42 -19 42 -42 0 -9 9 -22 19 -27 16 -9 20
-7 25 14 16 63 -71 127 -127 94z"/>
<path d="M13690 2510 c0 -13 7 -20 18 -20 11 0 27 9 37 20 18 20 17 20 -18 20
-30 0 -37 -4 -37 -20z"/>
<path d="M1511 2383 c-47 -73 -59 -98 -49 -105 95 -62 131 -80 139 -67 14 23
11 27 -36 55 -50 29 -49 27 -34 55 10 19 12 19 35 5 13 -9 35 -23 48 -32 23
-14 25 -14 35 5 9 17 6 23 -26 43 -20 13 -41 26 -46 29 -5 4 -4 15 2 28 l12
21 44 -30 c24 -16 48 -30 53 -30 9 0 26 30 20 35 -28 20 -98 65 -114 73 -20
10 -26 4 -83 -85z"/>
<path d="M1722 2323 c-36 -17 -72 -76 -72 -117 0 -32 54 -94 88 -103 15 -3 34
-16 44 -27 20 -23 15 -27 62 50 l26 42 -40 26 c-47 31 -46 31 -54 9 -5 -11 1
-23 16 -34 l23 -17 -28 -7 c-34 -9 -74 16 -83 51 -7 27 15 67 48 88 28 17 71
-5 84 -43 18 -56 54 -64 54 -12 0 34 -31 76 -70 96 -37 19 -57 19 -98 -2z"/>
<path d="M945 2258 c-2 -7 -6 -37 -7 -66 l-3 -52 -40 59 c-29 44 -46 61 -62
61 -22 0 -23 -3 -23 -105 0 -98 1 -105 20 -105 17 0 19 8 22 66 l3 66 48 -67
c66 -92 81 -87 85 25 2 47 0 95 -3 108 -6 24 -33 30 -40 10z"/>
<path d="M1094 2261 c-58 -25 -81 -104 -47 -161 26 -45 89 -64 133 -40 12 6
21 7 25 0 3 -5 12 -7 20 -3 11 3 15 21 15 59 l0 54 -45 0 c-38 0 -45 -3 -45
-20 0 -13 7 -20 20 -20 25 0 26 -16 1 -30 -52 -27 -94 5 -89 66 2 31 9 42 32
52 25 13 31 12 57 -7 53 -39 82 -17 35 28 -26 25 -80 35 -112 22z"/>
<path d="M607 2208 l-46 -53 -1 48 c0 40 -3 47 -20 47 -19 0 -20 -7 -20 -105
l0 -105 26 0 c23 0 26 3 21 25 -2 16 2 34 12 46 16 20 17 20 49 -25 20 -28 41
-46 53 -46 27 0 24 16 -16 70 -39 54 -41 62 -20 80 9 7 25 26 36 42 l20 28
-24 0 c-17 0 -38 -16 -70 -52z"/>
<path d="M94 2241 c-58 -25 -81 -104 -47 -161 26 -45 89 -64 133 -40 12 6 21
7 25 0 3 -5 12 -7 20 -3 11 3 15 21 15 59 l0 54 -45 0 c-38 0 -45 -3 -45 -20
0 -13 7 -20 20 -20 25 0 26 -16 1 -30 -52 -27 -94 5 -89 66 2 31 9 42 32 52
25 13 31 12 57 -7 53 -39 82 -17 35 28 -26 25 -80 35 -112 22z"/>
<path d="M329 2235 c-37 -20 -59 -58 -59 -101 0 -52 53 -104 107 -104 45 0 77
20 98 60 19 37 19 63 0 100 -28 53 -94 74 -146 45z m76 -37 c30 -13 42 -50 29
-87 -22 -62 -114 -44 -114 22 0 35 15 61 40 70 8 3 16 6 17 6 1 1 14 -4 28
-11z"/>
<path d="M730 2145 l0 -105 26 0 c24 0 26 3 20 31 -3 17 -6 65 -6 105 0 67 -2
74 -20 74 -19 0 -20 -7 -20 -105z"/>
<path d="M1942 2183 c-33 -16 -72 -75 -72 -109 0 -40 34 -87 77 -106 56 -25
93 -17 133 28 59 68 38 154 -47 190 -41 18 -50 17 -91 -3z m96 -49 c33 -23 31
-86 -4 -113 -35 -27 -59 -26 -89 4 -33 32 -31 60 4 96 33 33 56 36 89 13z"/>
<path d="M14957 2158 c-11 -9 -14 -18 -8 -27 12 -19 51 -4 51 20 0 22 -18 25
-43 7z"/>
<path d="M14791 2079 c-22 -21 -31 -40 -31 -62 0 -80 82 -137 148 -103 18 9
32 21 32 27 0 5 6 9 13 8 43 -5 45 1 17 64 l-21 46 -37 -17 c-20 -9 -38 -17
-40 -18 -1 -1 0 -8 4 -17 4 -12 13 -15 30 -11 43 11 19 -37 -26 -51 -46 -15
-90 49 -66 96 10 20 20 24 56 25 76 2 77 3 51 24 -37 31 -93 27 -130 -11z"/>
<path d="M2131 1993 c-57 -88 -60 -96 -44 -109 16 -11 22 -9 45 17 42 45 56
39 60 -27 2 -46 7 -60 26 -72 l22 -14 0 79 0 80 62 17 c60 17 61 17 38 33 -20
14 -29 15 -69 3 -25 -7 -57 -15 -70 -18 l-24 -5 27 39 c31 46 32 50 7 63 -16
9 -26 -2 -80 -86z"/>
<path d="M14672 2031 c-10 -6 -8 -20 12 -64 14 -32 23 -57 20 -57 -3 0 -32 18
-64 40 -63 42 -68 44 -88 32 -10 -7 -5 -28 23 -93 42 -96 50 -108 67 -91 9 9
7 24 -10 64 -12 28 -21 53 -19 54 1 2 30 -15 63 -37 57 -37 94 -44 94 -17 0
16 -72 178 -79 178 -3 0 -12 -4 -19 -9z"/>
<path d="M2311 1873 c-34 -52 -60 -96 -59 -97 2 -1 11 -7 20 -15 15 -11 23 -3
74 75 69 109 70 110 46 123 -17 9 -26 0 -81 -86z"/>
<path d="M14472 1952 c-10 -7 -5 -28 23 -93 41 -96 47 -104 68 -93 13 8 10 22
-25 102 -23 50 -44 92 -47 92 -3 0 -12 -4 -19 -8z"/>
<path d="M14408 1919 c-10 -5 -25 -35 -34 -67 l-17 -57 -20 43 c-22 45 -25 46
-45 34 -10 -7 -5 -28 23 -93 41 -96 46 -102 67 -94 13 5 14 12 5 41 -16 52 1
62 52 30 34 -22 45 -25 62 -15 20 10 18 13 -32 46 -30 20 -56 37 -58 39 -2 2
4 24 13 50 9 26 16 49 16 51 0 6 -15 2 -32 -8z"/>
<path d="M2401 1813 c-57 -88 -61 -97 -44 -107 10 -5 20 -9 22 -9 2 1 21 28
42 60 l39 58 0 -87 c0 -78 2 -88 22 -102 21 -15 23 -13 78 72 31 48 59 92 62
97 4 6 -2 16 -13 23 -17 11 -23 6 -56 -45 l-38 -57 -5 84 c-4 69 -8 85 -26 96
-20 14 -24 9 -83 -83z"/>
<path d="M14180 1823 c-57 -18 -90 -56 -90 -104 0 -33 37 -85 70 -99 38 -16
76 -6 111 30 50 49 34 132 -32 166 -29 15 -35 15 -59 7z m59 -56 c42 -51 9
-115 -56 -108 -37 4 -59 81 -31 109 16 16 73 15 87 -1z"/>
<path d="M14025 1388 c-533 -236 -1141 -504 -1350 -596 -209 -93 -695 -308
-1081 -478 l-700 -309 75 -3 76 -3 315 140 c173 76 560 248 860 381 620 276
1097 486 1250 553 l105 45 560 11 c308 6 629 11 713 11 l152 0 0 33 0 32 -126
-3 -126 -3 25 33 c14 18 29 45 32 61 4 15 11 30 16 33 5 3 9 41 9 85 l0 79
-30 0 c-35 0 -35 0 -11 -42 11 -18 23 -49 26 -69 6 -35 5 -38 -39 -68 -64 -45
-120 -62 -198 -63 -51 -1 -75 4 -103 20 l-36 22 12 -23 c6 -12 21 -32 32 -44
11 -13 19 -23 16 -24 -10 -2 -764 -16 -767 -14 -2 1 66 33 150 70 123 54 156
65 170 56 30 -19 48 -13 48 14 0 39 26 41 59 6 31 -33 74 -41 112 -21 13 7 19
7 19 0 0 -5 9 -10 20 -10 18 0 20 7 20 55 l0 55 -42 0 c-32 0 -39 3 -28 10 8
5 25 10 36 10 12 0 24 7 28 15 4 11 22 15 73 15 57 0 70 3 80 19 11 17 9 20
-9 23 -15 2 10 17 76 46 88 38 105 42 179 42 45 0 126 3 180 7 l97 6 0 28 0
28 -97 3 -98 3 94 39 c51 22 95 45 98 52 2 7 3 23 1 36 -3 24 -40 8 -973 -404z
m215 1 c0 -17 5 -20 21 -16 15 4 19 1 17 -11 -2 -11 -15 -18 -36 -20 -56 -6
-84 34 -39 56 32 16 37 14 37 -9z"/>
<path d="M4510 1763 c0 -17 39 -66 66 -84 79 -51 187 -20 231 66 l15 30 -29
-28 c-37 -35 -86 -49 -138 -41 -42 7 -109 37 -120 54 -7 12 -25 14 -25 3z"/>
<path d="M2642 1733 c-36 -17 -72 -76 -72 -117 0 -32 54 -94 88 -103 15 -3 34
-16 44 -27 20 -23 15 -27 62 50 l26 42 -40 26 c-47 31 -46 31 -54 9 -5 -11 1
-23 16 -34 l23 -17 -28 -7 c-34 -9 -74 16 -83 51 -7 27 15 67 48 88 28 17 71
-5 84 -43 18 -56 54 -64 54 -12 0 34 -31 76 -70 96 -37 19 -57 19 -98 -2z"/>
<path d="M13911 1689 c-22 -21 -31 -40 -31 -62 0 -80 82 -137 148 -103 18 9
32 21 32 27 0 5 6 9 13 8 43 -5 45 1 17 64 l-21 46 -37 -17 c-20 -9 -38 -17
-40 -18 -1 -1 0 -8 4 -17 4 -12 13 -15 30 -11 43 11 19 -37 -26 -51 -46 -15
-90 49 -66 96 10 20 20 24 56 25 76 2 77 3 51 24 -37 31 -93 27 -130 -11z"/>
<path d="M13755 1634 c-27 -13 -54 -25 -58 -27 -8 -2 57 -164 72 -180 10 -10
131 44 131 59 0 23 -17 24 -61 5 -33 -15 -45 -17 -51 -8 -14 22 -8 32 32 49
23 9 40 23 40 32 0 20 -23 20 -61 1 -16 -9 -34 -13 -39 -10 -21 13 -9 33 30
50 26 12 40 25 40 37 0 23 -14 22 -75 -8z"/>
<path d="M2867 1633 c-16 -15 -4 -33 38 -57 25 -15 45 -29 45 -31 0 -3 -40
-17 -88 -31 -52 -16 -93 -34 -100 -45 -10 -15 -1 -24 68 -68 65 -41 81 -47 90
-36 16 19 7 30 -46 61 -24 14 -44 27 -44 29 0 1 37 13 83 25 76 22 117 43 117
61 0 7 -138 99 -150 99 -4 0 -10 -3 -13 -7z"/>
<path d="M13572 1553 c-30 -27 -35 -57 -14 -83 16 -19 27 -23 70 -21 40 1 52
-2 52 -13 0 -22 -36 -39 -58 -27 -11 6 -23 6 -33 0 -12 -8 -10 -13 10 -29 28
-24 43 -25 80 -6 33 18 51 54 40 82 -11 31 -26 37 -80 35 -26 -1 -50 3 -53 8
-10 15 22 34 48 27 13 -3 32 -3 41 0 14 6 14 8 -1 25 -22 24 -75 25 -102 2z"/>
<path d="M13322 1431 c-35 -16 -67 -32 -72 -37 -7 -7 40 -137 55 -153 7 -6
155 60 155 69 0 14 -58 137 -67 143 -5 3 -37 -7 -71 -22z"/>
<path d="M143 1423 l-143 -4 0 -30 0 -30 443 7 c243 4 443 8 445 9 2 2 0 14
-4 29 l-6 26 -297 -2 c-163 -1 -360 -4 -438 -5z"/>
<path d="M3116 1356 c-25 -40 -46 -78 -46 -83 0 -9 140 -103 153 -103 7 0 97
146 97 158 0 10 -136 102 -151 102 -4 0 -28 -33 -53 -74z"/>
<path d="M14396 1376 c-47 -56 -47 -76 -2 -76 34 0 35 1 34 38 0 22 3 49 7 60
10 32 0 27 -39 -22z"/>
<path d="M13013 1309 c-46 -21 -61 -33 -57 -44 8 -19 13 -19 59 1 20 8 39 13
42 10 3 -3 -4 -33 -16 -67 -24 -73 -26 -98 -8 -105 17 -6 147 51 147 65 0 21
-23 23 -61 6 -22 -10 -41 -16 -44 -14 -2 3 6 38 19 79 34 112 25 119 -81 69z"/>
<path d="M2350 1220 l0 -100 70 0 c63 0 70 2 70 20 0 17 -7 20 -50 20 -43 0
-50 3 -50 20 0 17 7 20 50 20 43 0 50 3 50 20 0 17 -7 20 -50 20 -43 0 -50 3
-50 20 0 17 7 20 50 20 43 0 50 3 50 20 0 18 -7 20 -70 20 l-70 0 0 -100z"/>
<path d="M2549 1291 c-33 -34 -38 -75 -14 -121 24 -47 79 -64 126 -40 13 7 19
7 19 0 0 -5 9 -10 20 -10 18 0 20 7 20 55 l0 55 -45 0 c-39 0 -45 -3 -45 -21
0 -17 5 -20 21 -16 15 4 19 1 17 -11 -2 -13 -14 -17 -43 -17 -33 0 -42 4 -53
28 -11 22 -11 32 0 55 16 32 67 43 88 18 16 -20 50 -21 50 -2 0 26 -50 56 -92
56 -30 0 -46 -7 -69 -29z"/>
<path d="M2196 1294 c-19 -19 -21 -67 -3 -82 6 -6 28 -14 47 -19 46 -12 54
-43 11 -43 -16 0 -33 5 -36 10 -3 6 -15 10 -26 10 -24 0 -24 -15 1 -40 26 -26
90 -27 113 -2 38 42 13 90 -55 106 -16 4 -28 13 -28 20 0 21 31 28 50 11 21
-19 50 -20 50 -2 0 41 -92 64 -124 31z"/>
<path d="M683 1288 c-37 -10 -73 -55 -73 -93 0 -110 149 -146 196 -47 38 82
-33 164 -123 140z m77 -57 c26 -50 1 -101 -49 -101 -35 0 -54 22 -54 60 0 40
19 60 59 60 23 0 37 -6 44 -19z"/>
<path d="M1359 1271 c-33 -34 -38 -75 -14 -121 24 -47 79 -64 126 -40 13 7 19
7 19 0 0 -5 9 -10 20 -10 18 0 20 7 20 55 l0 55 -45 0 c-39 0 -45 -3 -45 -21
0 -17 5 -20 21 -16 15 4 19 1 17 -11 -2 -13 -14 -17 -43 -17 -33 0 -42 4 -53
28 -11 22 -11 32 0 55 16 32 67 43 88 18 16 -20 50 -21 50 -2 0 26 -50 56 -92
56 -30 0 -46 -7 -69 -29z"/>
<path d="M1560 1281 c0 -17 8 -20 50 -23 l50 -3 -50 -60 c-72 -87 -69 -96 33
-93 65 2 82 6 82 18 0 11 -15 16 -52 20 l-52 5 50 60 c71 86 68 95 -31 95 -73
0 -80 -2 -80 -19z"/>
<path d="M419 1261 c-33 -34 -38 -75 -14 -121 24 -47 79 -64 126 -40 13 7 19
7 19 0 0 -5 9 -10 20 -10 18 0 20 7 20 55 l0 55 -45 0 c-39 0 -45 -3 -45 -21
0 -17 5 -20 21 -16 15 4 19 1 17 -11 -2 -13 -14 -17 -43 -17 -33 0 -42 4 -53
28 -11 22 -11 32 0 55 16 32 67 43 88 18 16 -20 50 -21 50 -2 0 26 -50 56 -92
56 -30 0 -46 -7 -69 -29z"/>
<path d="M860 1190 c0 -93 1 -100 20 -100 15 0 20 7 20 28 0 26 15 52 31 52 3
0 18 -18 33 -40 19 -29 33 -40 52 -40 l25 0 -40 58 c-27 40 -37 63 -31 72 5 9
4 20 -3 28 -9 11 -16 8 -39 -20 l-27 -33 -1 48 c0 40 -3 47 -20 47 -19 0 -20
-7 -20 -100z"/>
<path d="M1870 1205 l0 -84 83 6 c45 3 82 6 82 7 0 1 -1 36 -3 79 l-4 77 -79
0 -79 0 0 -85z"/>
<path d="M56 1264 c-19 -19 -21 -67 -3 -82 6 -6 28 -14 47 -19 46 -12 54 -43
11 -43 -16 0 -33 5 -36 10 -3 6 -15 10 -26 10 -24 0 -24 -15 1 -40 26 -26 90
-27 113 -2 38 42 13 90 -55 106 -16 4 -28 13 -28 20 0 21 31 28 50 11 21 -19
50 -20 50 -2 0 41 -92 64 -124 31z"/>
<path d="M220 1180 l0 -100 70 0 c63 0 70 2 70 20 0 17 -7 20 -50 20 -43 0
-50 3 -50 20 0 17 7 20 50 20 43 0 50 3 50 20 0 17 -7 20 -50 20 -43 0 -50 3
-50 20 0 17 7 20 50 20 43 0 50 3 50 20 0 18 -7 20 -70 20 l-70 0 0 -100z"/>
<path d="M3457 1229 c-45 -26 -41 -76 10 -131 27 -28 24 -48 -6 -48 -20 0 -41
21 -45 42 -6 45 -46 53 -46 9 0 -45 9 -60 51 -81 50 -26 65 -25 94 5 33 32 31
57 -5 98 -34 39 -39 67 -12 67 23 0 42 -19 42 -42 0 -9 9 -22 19 -27 16 -9 20
-7 25 14 16 63 -71 127 -127 94z"/>
<path d="M12801 1209 c-22 -21 -31 -40 -31 -62 0 -80 82 -137 148 -103 18 9
32 21 32 27 0 5 6 9 13 8 43 -5 45 1 17 64 l-21 46 -37 -17 c-20 -9 -38 -17
-40 -18 -1 -1 0 -8 4 -17 4 -12 13 -15 30 -11 43 11 19 -37 -26 -51 -46 -15
-90 49 -66 96 10 20 20 24 56 25 76 2 77 3 51 24 -37 31 -93 27 -130 -11z"/>
<path d="M12682 1171 c-10 -6 -8 -20 12 -64 14 -32 23 -57 20 -57 -3 0 -32 18
-64 40 -63 42 -68 44 -88 32 -10 -7 -5 -28 23 -93 42 -96 50 -108 67 -91 9 9
7 24 -10 64 -12 28 -21 53 -19 54 1 2 30 -15 63 -37 57 -37 94 -44 94 -17 0
16 -72 178 -79 178 -3 0 -12 -4 -19 -9z"/>
<path d="M3591 1053 c-47 -73 -59 -98 -49 -105 95 -62 131 -80 139 -67 14 23
11 27 -36 55 -50 29 -49 27 -34 55 10 19 12 19 35 5 13 -9 35 -23 48 -32 23
-14 25 -14 35 5 9 17 6 23 -26 43 -20 13 -41 26 -46 29 -5 4 -4 15 2 28 l12
21 44 -30 c24 -16 48 -30 53 -30 9 0 26 30 20 35 -28 20 -98 65 -114 73 -20
10 -26 4 -83 -85z"/>
<path d="M12482 1082 c-10 -7 -5 -28 23 -93 41 -96 47 -104 68 -93 13 8 10 22
-25 102 -23 50 -44 92 -47 92 -3 0 -12 -4 -19 -8z"/>
<path d="M12418 1049 c-10 -5 -25 -35 -34 -67 l-17 -57 -20 43 c-22 45 -25 46
-45 34 -10 -7 -5 -28 23 -93 41 -96 46 -102 67 -94 13 5 14 12 5 41 -16 52 1
62 52 30 34 -22 45 -25 62 -15 20 10 18 13 -32 46 -30 20 -56 37 -58 39 -2 2
4 24 13 50 9 26 16 49 16 51 0 6 -15 2 -32 -8z"/>
<path d="M3802 993 c-36 -17 -72 -76 -72 -117 0 -32 54 -94 88 -103 15 -3 34
-16 44 -27 20 -23 15 -27 62 50 l26 42 -40 26 c-47 31 -46 31 -54 9 -5 -11 1
-23 16 -34 l23 -17 -28 -7 c-34 -9 -74 16 -83 51 -7 27 15 67 48 88 28 17 71
-5 84 -43 18 -56 54 -64 54 -12 0 34 -31 76 -70 96 -37 19 -57 19 -98 -2z"/>
<path d="M12190 953 c-57 -18 -90 -56 -90 -104 0 -33 37 -85 70 -99 38 -16 76
-6 111 30 50 49 34 132 -32 166 -29 15 -35 15 -59 7z m59 -56 c42 -51 9 -115
-56 -108 -37 4 -59 81 -31 109 16 16 73 15 87 -1z"/>
<path d="M14040 896 c0 -27 50 -75 85 -82 40 -7 88 17 104 52 10 22 10 22 -26
8 -43 -19 -102 -11 -138 18 -20 15 -25 16 -25 4z"/>
<path d="M4022 853 c-33 -16 -72 -75 -72 -109 0 -40 34 -87 77 -106 56 -25 93
-17 133 28 59 68 38 154 -47 190 -41 18 -50 17 -91 -3z m96 -49 c33 -23 31
-86 -4 -113 -35 -27 -59 -26 -89 4 -33 32 -31 60 4 96 33 33 56 36 89 13z"/>
<path d="M11921 829 c-22 -21 -31 -40 -31 -62 0 -80 82 -137 148 -103 18 9 32
21 32 27 0 5 6 9 13 8 43 -5 45 1 17 64 l-21 46 -37 -17 c-20 -9 -38 -17 -40
-18 -1 -1 0 -8 4 -17 4 -12 13 -15 30 -11 43 11 19 -37 -26 -51 -46 -15 -90
49 -66 96 10 20 20 24 56 25 76 2 77 3 51 24 -37 31 -93 27 -130 -11z"/>
<path d="M11765 774 c-27 -13 -54 -25 -58 -27 -8 -2 57 -164 72 -180 10 -10
131 44 131 59 0 23 -17 24 -61 5 -33 -15 -45 -17 -51 -8 -14 22 -8 32 32 49
23 9 40 23 40 32 0 20 -23 20 -61 1 -16 -9 -34 -13 -39 -10 -21 13 -9 33 30
50 26 12 40 25 40 37 0 23 -14 22 -75 -8z"/>
<path d="M4201 653 c-57 -88 -60 -96 -44 -109 16 -11 22 -9 45 17 42 45 56 39
60 -27 2 -46 7 -60 26 -72 l22 -14 0 79 0 80 62 17 c60 17 61 17 38 33 -20 14
-29 15 -69 3 -25 -7 -57 -15 -70 -18 l-24 -5 27 39 c31 46 32 50 7 63 -16 9
-26 -2 -80 -86z"/>
<path d="M9352 718 c-19 -19 -14 -46 10 -59 18 -10 24 -8 40 11 31 38 -15 83
-50 48z"/>
<path d="M9524 699 c-8 -14 11 -33 25 -25 16 10 13 36 -3 36 -8 0 -18 -5 -22
-11z"/>
<path d="M11572 683 c-30 -27 -35 -57 -14 -83 16 -19 27 -23 70 -21 40 1 52
-2 52 -13 0 -22 -36 -39 -58 -27 -11 6 -23 6 -33 0 -12 -8 -10 -13 10 -29 28
-24 43 -25 80 -6 33 18 51 54 40 82 -11 31 -26 37 -80 35 -26 -1 -50 3 -53 8
-10 15 22 34 48 27 13 -3 32 -3 41 0 14 6 14 8 -1 25 -22 24 -75 25 -102 2z"/>
<path d="M14113 624 c-3 -8 -1 -20 5 -26 15 -15 43 8 35 28 -7 19 -32 18 -40
-2z"/>
<path d="M4391 533 c-34 -52 -60 -96 -59 -97 2 -1 11 -7 20 -15 15 -11 23 -3
74 75 69 109 70 110 46 123 -17 9 -26 0 -81 -86z"/>
<path d="M13510 610 c-11 -7 -12 -12 -3 -21 14 -14 46 -4 41 13 -6 16 -20 19
-38 8z"/>
<path d="M14590 585 c-16 -19 -5 -47 17 -43 11 2 18 12 18 27 0 29 -17 37 -35
16z"/>
<path d="M6666 576 c10 -27 92 -36 101 -11 2 7 -12 9 -37 7 -23 -2 -47 1 -55
8 -13 11 -14 10 -9 -4z"/>
<path d="M11325 563 c-33 -15 -63 -31 -66 -37 -6 -7 43 -140 56 -154 4 -4 155
65 155 71 0 20 -61 143 -72 144 -7 2 -40 -9 -73 -24z"/>
<path d="M1980 559 c-19 -16 -35 -20 -73 -17 -47 3 -48 3 -26 -14 37 -31 98
-16 118 28 13 29 13 29 -19 3z"/>
<path d="M4471 483 c-57 -88 -61 -97 -44 -107 10 -5 20 -9 22 -9 2 1 21 28 42
60 l39 58 0 -87 c0 -78 2 -88 22 -102 21 -15 23 -13 78 72 31 48 59 92 62 97
4 6 -2 16 -13 23 -17 11 -23 6 -56 -45 l-38 -57 -5 84 c-4 69 -8 85 -26 96
-20 14 -24 9 -83 -83z"/>
<path d="M12700 550 c-24 -24 -21 -61 7 -92 36 -40 103 1 103 63 0 32 -3 35
-52 44 -29 6 -40 3 -58 -15z"/>
<path d="M5292 538 c2 -12 10 -23 18 -23 22 0 19 39 -3 43 -15 3 -18 -1 -15
-20z"/>
<path d="M10571 547 c-9 -11 -8 -17 4 -27 12 -10 16 -9 21 5 9 23 -10 40 -25
22z"/>
<path d="M8400 510 c0 -13 7 -20 20 -20 13 0 20 7 20 20 0 13 -7 20 -20 20
-13 0 -20 -7 -20 -20z"/>
<path d="M5844 499 c-10 -17 13 -36 27 -22 12 12 4 33 -11 33 -5 0 -12 -5 -16
-11z"/>
<path d="M11023 449 c-46 -21 -61 -33 -57 -44 8 -19 13 -19 59 1 20 8 39 13
42 10 3 -3 -4 -33 -16 -67 -24 -73 -26 -98 -8 -105 17 -6 147 51 147 65 0 21
-23 23 -61 6 -22 -10 -41 -16 -44 -14 -2 3 6 38 19 79 34 112 25 119 -81 69z"/>
<path d="M3807 464 c-14 -14 -7 -35 11 -32 9 2 17 10 17 17 0 16 -18 25 -28
15z"/>
<path d="M7312 418 c2 -12 10 -23 18 -23 22 0 19 39 -3 43 -15 3 -18 -1 -15
-20z"/>
<path d="M735 420 c-8 -13 3 -30 20 -30 20 0 30 21 14 31 -18 11 -26 11 -34
-1z"/>
<path d="M872 413 c4 -21 33 -25 33 -3 0 8 -8 16 -18 18 -14 3 -18 -1 -15 -15z"/>
<path d="M9475 420 c-4 -7 -3 -16 3 -22 14 -14 45 -2 40 15 -6 16 -34 21 -43
7z"/>
<path d="M4722 403 c-36 -17 -72 -76 -72 -117 0 -32 54 -94 88 -103 15 -3 34
-16 44 -27 20 -23 15 -27 62 50 l26 42 -40 26 c-47 31 -46 31 -54 9 -5 -11 1
-23 16 -34 l23 -17 -28 -7 c-34 -9 -74 16 -83 51 -7 27 15 67 48 88 28 17 71
-5 84 -43 18 -56 54 -64 54 -12 0 34 -31 76 -70 96 -37 19 -57 19 -98 -2z"/>
<path d="M394 399 c-3 -6 -1 -16 4 -21 13 -13 45 8 36 23 -7 12 -31 11 -40 -2z"/>
<path d="M2103 374 c-3 -8 -1 -20 5 -26 15 -15 43 8 35 28 -7 19 -32 18 -40
-2z"/>
<path d="M10811 339 c-22 -21 -31 -40 -31 -62 0 -80 82 -137 148 -103 18 9 32
21 32 27 0 5 6 9 13 8 43 -5 45 1 17 64 l-21 46 -37 -17 c-20 -9 -38 -17 -40
-18 -1 -1 0 -8 4 -17 4 -12 13 -15 30 -11 43 11 19 -37 -26 -51 -46 -15 -90
49 -66 96 10 20 20 24 56 25 76 2 77 3 51 24 -37 31 -93 27 -130 -11z"/>
<path d="M2941 351 c-8 -5 -10 -14 -7 -20 9 -13 33 -15 40 -2 9 14 -18 31 -33
22z"/>
<path d="M1153 304 c-8 -21 13 -42 28 -27 13 13 5 43 -11 43 -6 0 -13 -7 -17
-16z"/>
<path d="M4947 303 c-16 -15 -4 -33 38 -57 25 -15 45 -29 45 -31 0 -3 -40 -17
-88 -31 -52 -16 -93 -34 -100 -45 -10 -15 -1 -24 68 -68 65 -41 81 -47 90 -36
16 19 7 30 -46 61 -24 14 -44 27 -44 29 0 1 37 13 83 25 76 22 117 43 117 61
0 7 -138 99 -150 99 -4 0 -10 -3 -13 -7z"/>
<path d="M7514 295 c-4 -9 -2 -21 4 -27 15 -15 44 -1 40 19 -4 23 -36 29 -44
8z"/>
<path d="M8618 298 c-8 -21 2 -38 22 -38 19 0 30 17 23 38 -3 6 -13 12 -23 12
-10 0 -20 -6 -22 -12z"/>
<path d="M10692 301 c-10 -6 -8 -20 12 -64 14 -32 23 -57 20 -57 -3 0 -32 18
-64 40 -63 42 -68 44 -88 32 -10 -7 -5 -28 23 -93 42 -96 50 -108 67 -91 9 9
7 24 -10 64 -12 28 -21 53 -19 54 1 2 30 -15 63 -37 57 -37 94 -44 94 -17 0
16 -72 178 -79 178 -3 0 -12 -4 -19 -9z"/>
<path d="M7058 269 c-42 -24 -6 -109 46 -109 31 0 49 23 49 62 0 49 -50 74
-95 47z"/>
<path d="M3295 254 c-35 -35 8 -82 44 -50 25 23 26 30 5 50 -20 20 -29 20 -49
0z"/>
<path d="M3450 250 c-18 -11 -4 -42 17 -38 10 2 19 10 21 19 4 19 -19 31 -38
19z"/>
<path d="M2002 218 c-16 -16 -15 -33 2 -47 22 -18 58 4 54 32 -3 25 -37 34
-56 15z"/>
<path d="M9470 209 c0 -25 33 -22 38 4 2 12 -3 17 -17 17 -15 0 -21 -6 -21
-21z"/>
<path d="M10492 222 c-10 -7 -5 -28 23 -93 41 -96 47 -104 68 -93 13 8 10 22
-25 102 -23 50 -44 92 -47 92 -3 0 -12 -4 -19 -8z"/>
<path d="M10428 189 c-10 -5 -25 -35 -34 -67 l-17 -57 -20 43 c-22 44 -25 46
-45 34 -9 -7 -6 -24 15 -75 23 -54 32 -67 51 -67 15 0 22 6 22 19 0 32 17 33
60 6 33 -21 44 -23 61 -14 20 10 18 13 -32 46 -30 20 -56 37 -58 39 -2 2 4 24
13 50 9 26 16 49 16 51 0 6 -15 2 -32 -8z"/>
<path d="M724 155 c-7 -18 3 -35 21 -35 18 0 26 25 12 39 -15 15 -27 14 -33
-4z"/>
<path d="M1765 160 c-4 -7 -3 -16 3 -22 14 -14 45 -2 40 15 -6 16 -34 21 -43
7z"/>
<path d="M3145 160 c-4 -7 -3 -16 3 -22 14 -14 45 -2 40 15 -6 16 -34 21 -43
7z"/>
<path d="M7245 160 c-4 -7 -3 -16 3 -22 14 -14 45 -2 40 15 -6 16 -34 21 -43
7z"/>
<path d="M130 109 c0 -14 5 -19 17 -17 26 5 29 38 4 38 -15 0 -21 -6 -21 -21z"/>
<path d="M2820 115 c0 -21 30 -31 40 -14 11 17 3 29 -21 29 -10 0 -19 -7 -19
-15z"/>
<path d="M3424 119 c-3 -6 0 -17 7 -25 18 -17 44 -2 36 20 -7 18 -33 21 -43 5z"/>
<path d="M5211 50 l-31 -50 113 0 112 0 -78 50 c-42 28 -79 50 -81 50 -3 0
-18 -22 -35 -50z"/>
<path d="M10200 83 c-39 -13 -63 -30 -76 -55 -14 -27 -13 -28 8 -28 13 0 29 9
36 20 8 14 23 20 47 20 24 0 39 -6 47 -20 11 -17 58 -29 58 -15 0 16 -37 58
-61 71 -29 15 -35 15 -59 7z"/>
<path d="M423 64 c-8 -21 13 -42 28 -27 13 13 5 43 -11 43 -6 0 -13 -7 -17
-16z"/>
</g>
</svg>
